<?xml version="1.0" standalone="no"?><!DOCTYPE svg PUBLIC "-//W3C//DTD SVG 1.1//EN" "http://www.w3.org/Graphics/SVG/1.1/DTD/svg11.dtd"><svg t="1531474727095" class="icon" style="" viewBox="0 0 1024 1024" version="1.1" xmlns="http://www.w3.org/2000/svg" p-id="4536" xmlns:xlink="http://www.w3.org/1999/xlink" width="200" height="200"><defs><style type="text/css"></style></defs><path d="M512 977.54292c-62.829619 0-123.817328-12.279404-181.223544-36.633557C275.31448 917.476167 225.582892 883.912461 182.809633 841.139203S106.472669 748.634356 83.039472 693.172379c-24.251824-57.406216-36.633557-118.393924-36.633557-181.223544s12.279404-123.817328 36.633557-181.223544c23.433197-55.461977 56.996902-105.193565 99.770161-147.966823S275.31448 106.421505 330.776456 82.988308c57.406216-24.251824 118.393924-36.633557 181.223544-36.633557s123.817328 12.279404 181.223544 36.633557c55.461977 23.433197 105.193565 56.996902 147.966823 99.770161s76.336964 92.504847 99.770161 147.966823c24.251824 57.406216 36.633557 118.393924 36.633557 181.223544s-12.279404 123.817328-36.633557 181.223544C917.527331 748.634356 883.963625 798.365944 841.190367 841.139203s-92.504847 76.336964-147.966823 99.770161C635.817328 965.263516 574.829619 977.54292 512 977.54292zM512 107.854102c-54.541021 0-107.547117 10.64215-157.278705 31.721795-48.094334 20.363346-91.379235 49.526931-128.524433 86.67213s-66.308784 80.327771-86.67213 128.524433c-21.079644 49.833916-31.721795 102.737684-31.721795 157.278705s10.64215 107.547117 31.721795 157.278705c20.363346 48.094334 49.526931 91.379235 86.67213 128.524433s80.327771 66.308784 128.524433 86.67213c49.833916 21.079644 102.737684 31.721795 157.278705 31.721795s107.547117-10.64215 157.278705-31.721795c48.094334-20.363346 91.379235-49.526931 128.524433-86.67213s66.308784-80.327771 86.67213-128.524433c21.079644-49.833916 31.721795-102.737684 31.721795-157.278705s-10.64215-107.547117-31.721795-157.278705c-20.363346-48.094334-49.526931-91.379235-86.67213-128.524433s-80.327771-66.308784-128.524433-86.67213C619.547117 118.496253 566.541021 107.854102 512 107.854102z" p-id="4537"></path><path d="M310.413111 262.165284l403.787749 0 0 514.20006-48.094334 0 0-40.215049L358.507445 736.150295l0 40.215049-48.094334 0L310.413111 262.165284zM358.507445 304.733886l0 169.353453 307.496752 0L666.004197 304.733886 358.507445 304.733886zM358.507445 516.451284 358.507445 694.809633l307.496752 0L666.004197 516.451284 358.507445 516.451284z" p-id="4538"></path></svg>