<?xml version="1.0" standalone="no"?><!DOCTYPE svg PUBLIC "-//W3C//DTD SVG 1.1//EN" "http://www.w3.org/Graphics/SVG/1.1/DTD/svg11.dtd"><svg t="1531451121207" class="icon" style="" viewBox="0 0 1024 1024" version="1.1" xmlns="http://www.w3.org/2000/svg" p-id="1185" xmlns:xlink="http://www.w3.org/1999/xlink" width="200" height="200"><defs><style type="text/css"></style></defs><path d="M893.838521 291.679106 740.456179 291.679106c7.14677-6.951319 13.340843-15.247262 17.511839-26.093285 18.35095-47.606251 24.89397-119.66952-4.143367-165.422564-12.929474-20.344351-33.367969-32.822546-57.607022-35.128055-45.674249-4.315282-92.875271 26.606984-113.438609 48.478108-29.039383 30.902824-51.126424 64.757886-67.997674 104.923678-16.871249-40.165792-38.95829-74.020854-67.997674-104.923678-20.563338-21.871123-67.701938-52.575426-113.470331-48.478108-24.239054 2.305509-44.677549 14.783705-57.607022 35.128055-29.006637 45.690622-22.494317 117.76924-4.175089 165.390841 4.181229 10.861372 10.384511 19.166525 17.542538 26.123984L135.690402 291.678082c-37.262672 0-67.577095 30.314423-67.577095 67.577095l0 112.052029c0 34.129308 25.518187 62.133106 58.424644 66.652026-0.110517 1.585101-0.474814 3.097548-0.474814 4.710278l0 347.684654c0 37.262672 30.314423 67.577095 67.577095 67.577095l642.279159 0c37.262672 0 67.577095-30.314423 67.577095-67.577095L903.496485 542.670533c0-1.614777-0.366344-3.127224-0.476861-4.714372 32.893154-4.5312 58.395992-32.530904 58.395992-66.647933l0-112.052029C961.415616 321.993528 931.101193 291.679106 893.838521 291.679106zM897.608382 359.2562l0 112.052029c0 2.009773-1.775436 3.76986-3.76986 3.76986l-57.919131 0L628.764354 475.078089 628.764354 355.48634l265.074168 0C895.832945 355.48634 897.608382 357.246427 897.608382 359.2562zM464.603527 355.48634l100.353592 0 0 538.638707-100.353592 0L464.603527 355.48634zM629.262704 157.225881c13.085016-13.895475 40.47176-28.78765 58.230216-28.78765 0.934279 0 1.807159 0.047072 2.679016 0.124843 5.421476 0.5137 7.695263 2.508123 9.752108 5.779633 15.484669 24.379247 11.278881 75.179236-1.49505 108.313891-4.704139 12.228509-37.480636 13.927197-63.807235 15.297404-21.342074 1.106194-43.400462 2.243087-62.000076 8.505721-2.055822 0.685615-5.203512 2.055822-9.097192 3.879354C578.572208 224.693482 599.571475 188.80204 629.262704 157.225881zM329.60488 134.341684c2.055822-3.27151 4.330632-5.26491 9.752108-5.779633 0.87288-0.077771 1.775436-0.124843 2.679016-0.124843 17.758456 0 45.175899 14.892175 58.261938 28.78765 29.691229 31.576159 50.690496 67.468624 65.739237 113.111151-3.862981-1.822508-7.009647-3.178389-9.03477-3.862981-18.662035-6.277984-40.720424-7.414877-62.09422-8.521071-26.326599-1.37123-59.103096-3.068895-63.807235-15.297404C318.357721 209.505571 314.151933 158.673859 329.60488 134.341684zM131.920542 359.2562c0-2.009773 1.775436-3.76986 3.76986-3.76986l265.10589 0 0 119.591749L193.640232 475.078089l-57.94983 0c-1.994424 0-3.76986-1.760087-3.76986-3.76986L131.920542 359.2562zM189.870372 890.355187 189.870372 542.670533c0-1.978051 1.807159-3.78521 3.76986-3.78521l207.15606 0 0 355.239723L193.640232 894.125047C191.646831 894.125047 189.870372 892.364961 189.870372 890.355187zM839.689251 890.355187c0 2.009773-1.775436 3.76986-3.76986 3.76986L628.764354 894.125047 628.764354 538.885324l207.15606 0c1.962701 0 3.76986 1.807159 3.76986 3.78521L839.690274 890.355187z" p-id="1186"></path></svg>