<?xml version="1.0" standalone="no"?><!DOCTYPE svg PUBLIC "-//W3C//DTD SVG 1.1//EN" "http://www.w3.org/Graphics/SVG/1.1/DTD/svg11.dtd"><svg t="1531474699907" class="icon" style="" viewBox="0 0 1024 1024" version="1.1" xmlns="http://www.w3.org/2000/svg" p-id="3866" xmlns:xlink="http://www.w3.org/1999/xlink" width="200" height="200"><defs><style type="text/css"></style></defs><path d="M512 977.54292c-62.829619 0-123.817328-12.279404-181.223544-36.633557-55.461977-23.433197-105.193565-56.996902-147.966823-99.770161-42.773259-42.773259-76.336964-92.504847-99.770161-147.966823-24.251824-57.406216-36.633557-118.393924-36.633557-181.223544s12.279404-123.817328 36.633557-181.223544c23.433197-55.461977 56.996902-105.193565 99.770161-147.966823 42.773259-42.773259 92.504847-76.336964 147.966823-99.770161 57.406216-24.251824 118.393924-36.633557 181.223544-36.633557s123.817328 12.279404 181.223544 36.633557c55.461977 23.433197 105.193565 56.996902 147.966823 99.770161 42.773259 42.773259 76.336964 92.504847 99.770161 147.966823 24.251824 57.406216 36.633557 118.393924 36.633557 181.223544s-12.279404 123.817328-36.633557 181.223544c-23.433197 55.461977-56.996902 105.193565-99.770161 147.966823-42.773259 42.773259-92.504847 76.336964-147.966823 99.770161C635.817328 965.263516 574.829619 977.54292 512 977.54292zM512 107.854102c-54.541021 0-107.547117 10.64215-157.278705 31.721795-48.094334 20.363346-91.379235 49.526931-128.524433 86.67213-37.145198 37.145198-66.308784 80.327771-86.67213 128.524433-21.079644 49.833916-31.721795 102.737684-31.721795 157.278705 0 54.541021 10.64215 107.547117 31.721795 157.278705 20.363346 48.094334 49.526931 91.379235 86.67213 128.524433 37.145198 37.145198 80.327771 66.308784 128.524433 86.67213 49.833916 21.079644 102.737684 31.721795 157.278705 31.721795s107.547117-10.64215 157.278705-31.721795c48.094334-20.363346 91.379235-49.526931 128.524433-86.67213 37.145198-37.145198 66.308784-80.327771 86.67213-128.524433 21.079644-49.833916 31.721795-102.737684 31.721795-157.278705 0-54.541021-10.64215-107.547117-31.721795-157.278705-20.363346-48.094334-49.526931-91.379235-86.67213-128.524433-37.145198-37.145198-80.327771-66.308784-128.524433-86.67213C619.547117 118.496253 566.541021 107.854102 512 107.854102z" p-id="3867"></path><path d="M367.307685 590.639352c-8.493255 72.8578-36.940542 138.75727-85.239532 197.596083-12.074748-11.665434-25.070451-23.023883-39.089437-33.973019 36.633557-39.601079 61.192365-86.774458 73.574098-141.520136 8.697911-40.419706 12.995703-96.290996 12.995703-167.61387L329.548516 249.169581l378.307984 0 0 441.649246c0 55.87129-26.605376 83.806935-79.816129 83.806935-22.307585 0-50.959528-0.409313-86.058159-1.125612-1.841911-13.609673-4.707105-29.470571-8.493255-47.582692 34.689317 2.251224 62.113321 3.376836 82.067353 3.376836 30.596183 0 45.84311-14.939942 45.84311-44.717498l0-94.039772L367.307685 590.537024zM371.810133 549.298691l289.691616 0L661.501749 440.625962 376.107924 440.625962C376.107924 478.38513 374.675327 514.609373 371.810133 549.298691zM376.107924 291.635855l0 107.547117 285.393824 0L661.501749 291.635855 376.107924 291.635855z" p-id="3868"></path></svg>