<?xml version="1.0" standalone="no"?><!DOCTYPE svg PUBLIC "-//W3C//DTD SVG 1.1//EN" "http://www.w3.org/Graphics/SVG/1.1/DTD/svg11.dtd"><svg t="1531474797191" class="icon" style="" viewBox="0 0 1024 1024" version="1.1" xmlns="http://www.w3.org/2000/svg" p-id="5876" xmlns:xlink="http://www.w3.org/1999/xlink" width="200" height="200"><defs><style type="text/css"></style></defs><path d="M416.023273 384V218.530909l165.469091 165.469091H416.023273z m192 576H64v-768h288.023273v256h256v512zM64 128C28.625455 128 0 156.672 0 192v768C0 995.374545 28.672 1024 64 1024h544.023273c35.328 0 64-28.672 64-64V384l-256-256H64zM768 256V90.530909L933.469091 256H768z m0-256H416.023273c-35.374545 0-64 28.672-64 64h351.976727v256h256v512h-223.976727v64h223.976727c35.374545 0 64-28.672 64-64V256L768 0z" p-id="5877"></path></svg>