<?xml version="1.0" standalone="no"?><!DOCTYPE svg PUBLIC "-//W3C//DTD SVG 1.1//EN" "http://www.w3.org/Graphics/SVG/1.1/DTD/svg11.dtd"><svg t="1531474666938" class="icon" style="" viewBox="0 0 1024 1024" version="1.1" xmlns="http://www.w3.org/2000/svg" p-id="3127" xmlns:xlink="http://www.w3.org/1999/xlink" width="200" height="200"><defs><style type="text/css"></style></defs><path d="M512 977.54292c-62.829619 0-123.817328-12.279404-181.223544-36.633557C275.31448 917.476167 225.582892 883.912461 182.809633 841.139203S106.472669 748.634356 83.039472 693.172379c-24.251824-57.406216-36.633557-118.393924-36.633557-181.223544s12.279404-123.817328 36.633557-181.223544c23.433197-55.461977 56.996902-105.193565 99.770161-147.966823S275.31448 106.421505 330.776456 82.988308c57.406216-24.251824 118.393924-36.633557 181.223544-36.633557s123.817328 12.279404 181.223544 36.633557c55.461977 23.433197 105.193565 56.996902 147.966823 99.770161s76.336964 92.504847 99.770161 147.966823c24.251824 57.406216 36.633557 118.393924 36.633557 181.223544s-12.279404 123.817328-36.633557 181.223544C917.527331 748.634356 883.963625 798.365944 841.190367 841.139203s-92.504847 76.336964-147.966823 99.770161C635.817328 965.263516 574.829619 977.54292 512 977.54292zM512 107.854102c-54.541021 0-107.547117 10.64215-157.278705 31.721795-48.094334 20.363346-91.379235 49.526931-128.524433 86.67213s-66.308784 80.327771-86.67213 128.524433c-21.079644 49.833916-31.721795 102.737684-31.721795 157.278705s10.64215 107.547117 31.721795 157.278705c20.363346 48.094334 49.526931 91.379235 86.67213 128.524433s80.327771 66.308784 128.524433 86.67213c49.833916 21.079644 102.737684 31.721795 157.278705 31.721795s107.547117-10.64215 157.278705-31.721795c48.094334-20.363346 91.379235-49.526931 128.524433-86.67213s66.308784-80.327771 86.67213-128.524433c21.079644-49.833916 31.721795-102.737684 31.721795-157.278705s-10.64215-107.547117-31.721795-157.278705c-20.363346-48.094334-49.526931-91.379235-86.67213-128.524433s-80.327771-66.308784-128.524433-86.67213C619.547117 118.496253 566.541021 107.854102 512 107.854102z" p-id="3128"></path><path d="M328.525232 457.612471c0 95.881683-4.195463 161.781153-12.484061 197.596083-9.107225 43.796542-27.935645 85.853503-56.587589 126.273209-10.949136-14.018987-21.693614-26.605376-32.233437-37.963825 23.740182-36.224243 39.498751-72.653143 46.968722-109.286699 6.037374-31.721795 9.107225-86.979115 9.107225-165.874288L283.296093 248.657939l480.738683 0 0 451.882083c0 48.708304-23.433197 73.47177-70.197262 74.188068-26.810033 0.409313-56.587589 0-89.434996-1.125612-1.534926-11.358449-4.502448-26.605376-9.107225-45.84311 36.633557 2.251224 64.773858 3.376836 84.420905 3.376836 26.810033 0 40.215049-12.688718 40.215049-37.963825L719.931248 289.384631 328.525232 289.384631 328.525232 457.612471zM355.744579 449.630858l145.510942 0 0-57.201559L381.735985 392.429299l0-38.475467 119.519536 0 0-49.833916 44.205856 0 0 49.833916 119.519536 0 0 38.475467L545.359049 392.429299l0 57.201559 146.124913 0L691.483961 488.106326 355.744579 488.106326 355.744579 449.630858zM402.09933 535.177376l242.31358 0 0 152.878585L445.179574 688.055961l0 36.224243-43.080244 0L402.09933 535.177376zM601.434996 649.580494l0-75.927651L445.179574 573.652843l0 75.927651L601.434996 649.580494z" p-id="3129"></path></svg>